<mxfile host="app.diagrams.net" modified="2020-10-12T13:01:51.888Z" agent="5.0 (Windows NT 10.0; Win64; x64) AppleWebKit/537.36 (KHTML, like Gecko) Chrome/85.0.4183.121 Safari/537.36" etag="IwboW5MDxI-7gNshOFxR" version="13.7.9" type="github">
  <diagram id="FRmqQJbTzkD5vuaTd3p_" name="Page-1">
    <mxGraphModel dx="1550" dy="836" grid="1" gridSize="10" guides="1" tooltips="1" connect="1" arrows="1" fold="1" page="1" pageScale="1" pageWidth="827" pageHeight="1169" math="0" shadow="0">
      <root>
        <mxCell id="0" />
        <mxCell id="1" parent="0" />
        <mxCell id="VyK4O4VvUwhMD6-C16kk-33" value="" style="verticalLabelPosition=bottom;verticalAlign=top;html=1;shape=mxgraph.basic.rect;fillColor2=none;strokeWidth=1;size=20;indent=5;dashed=1;fontSize=16;fillColor=#d5e8d4;strokeColor=#82b366;" vertex="1" parent="1">
          <mxGeometry x="40" y="100" width="650" height="80" as="geometry" />
        </mxCell>
        <mxCell id="VyK4O4VvUwhMD6-C16kk-32" value="" style="verticalLabelPosition=bottom;verticalAlign=top;html=1;shape=mxgraph.basic.rect;fillColor2=none;strokeWidth=1;size=20;indent=5;dashed=1;fontSize=16;fillColor=#fff2cc;strokeColor=#d6b656;" vertex="1" parent="1">
          <mxGeometry x="40" y="180" width="650" height="350" as="geometry" />
        </mxCell>
        <mxCell id="VyK4O4VvUwhMD6-C16kk-27" value="" style="rounded=0;whiteSpace=wrap;html=1;fontSize=16;dashed=1;fillColor=#fff2cc;strokeColor=#d6b656;" vertex="1" parent="1">
          <mxGeometry x="500" y="200" width="160" height="230" as="geometry" />
        </mxCell>
        <mxCell id="VyK4O4VvUwhMD6-C16kk-20" value="" style="rounded=0;whiteSpace=wrap;html=1;fontSize=16;dashed=1;fillColor=#f5f5f5;strokeColor=#666666;fontColor=#333333;" vertex="1" parent="1">
          <mxGeometry x="80" y="430" width="400" height="80" as="geometry" />
        </mxCell>
        <mxCell id="VyK4O4VvUwhMD6-C16kk-3" style="edgeStyle=orthogonalEdgeStyle;rounded=0;orthogonalLoop=1;jettySize=auto;html=1;exitX=0.25;exitY=1;exitDx=0;exitDy=0;entryX=0.25;entryY=0;entryDx=0;entryDy=0;fontSize=16;" edge="1" parent="1" source="VyK4O4VvUwhMD6-C16kk-1" target="VyK4O4VvUwhMD6-C16kk-2">
          <mxGeometry relative="1" as="geometry" />
        </mxCell>
        <mxCell id="VyK4O4VvUwhMD6-C16kk-1" value="SqlSession" style="rounded=0;whiteSpace=wrap;html=1;fontSize=16;" vertex="1" parent="1">
          <mxGeometry x="190" y="120" width="180" height="40" as="geometry" />
        </mxCell>
        <mxCell id="VyK4O4VvUwhMD6-C16kk-4" style="edgeStyle=orthogonalEdgeStyle;rounded=0;orthogonalLoop=1;jettySize=auto;html=1;exitX=0.75;exitY=0;exitDx=0;exitDy=0;entryX=0.75;entryY=1;entryDx=0;entryDy=0;fontSize=16;" edge="1" parent="1" source="VyK4O4VvUwhMD6-C16kk-2" target="VyK4O4VvUwhMD6-C16kk-1">
          <mxGeometry relative="1" as="geometry" />
        </mxCell>
        <mxCell id="VyK4O4VvUwhMD6-C16kk-6" style="edgeStyle=orthogonalEdgeStyle;rounded=0;orthogonalLoop=1;jettySize=auto;html=1;exitX=0.25;exitY=1;exitDx=0;exitDy=0;entryX=0.25;entryY=0;entryDx=0;entryDy=0;fontSize=16;" edge="1" parent="1" source="VyK4O4VvUwhMD6-C16kk-2" target="VyK4O4VvUwhMD6-C16kk-5">
          <mxGeometry relative="1" as="geometry" />
        </mxCell>
        <mxCell id="VyK4O4VvUwhMD6-C16kk-2" value="Executor" style="rounded=0;whiteSpace=wrap;html=1;fontSize=16;" vertex="1" parent="1">
          <mxGeometry x="190" y="209" width="180" height="40" as="geometry" />
        </mxCell>
        <mxCell id="VyK4O4VvUwhMD6-C16kk-7" style="edgeStyle=orthogonalEdgeStyle;rounded=0;orthogonalLoop=1;jettySize=auto;html=1;exitX=0.75;exitY=0;exitDx=0;exitDy=0;entryX=0.75;entryY=1;entryDx=0;entryDy=0;fontSize=16;" edge="1" parent="1" source="VyK4O4VvUwhMD6-C16kk-5" target="VyK4O4VvUwhMD6-C16kk-2">
          <mxGeometry relative="1" as="geometry" />
        </mxCell>
        <mxCell id="VyK4O4VvUwhMD6-C16kk-10" style="rounded=0;orthogonalLoop=1;jettySize=auto;html=1;exitX=0.25;exitY=1;exitDx=0;exitDy=0;entryX=0.5;entryY=0;entryDx=0;entryDy=0;fontSize=16;" edge="1" parent="1" source="VyK4O4VvUwhMD6-C16kk-5" target="VyK4O4VvUwhMD6-C16kk-8">
          <mxGeometry relative="1" as="geometry" />
        </mxCell>
        <mxCell id="VyK4O4VvUwhMD6-C16kk-11" style="edgeStyle=none;rounded=0;orthogonalLoop=1;jettySize=auto;html=1;exitX=0.75;exitY=1;exitDx=0;exitDy=0;entryX=0.5;entryY=0;entryDx=0;entryDy=0;fontSize=16;" edge="1" parent="1" source="VyK4O4VvUwhMD6-C16kk-5" target="VyK4O4VvUwhMD6-C16kk-9">
          <mxGeometry relative="1" as="geometry" />
        </mxCell>
        <mxCell id="VyK4O4VvUwhMD6-C16kk-5" value="StatementHandler" style="rounded=0;whiteSpace=wrap;html=1;fontSize=16;" vertex="1" parent="1">
          <mxGeometry x="190" y="290" width="180" height="40" as="geometry" />
        </mxCell>
        <mxCell id="VyK4O4VvUwhMD6-C16kk-14" style="edgeStyle=none;rounded=0;orthogonalLoop=1;jettySize=auto;html=1;exitX=0.5;exitY=1;exitDx=0;exitDy=0;entryX=0.5;entryY=0;entryDx=0;entryDy=0;fontSize=16;" edge="1" parent="1" source="VyK4O4VvUwhMD6-C16kk-8" target="VyK4O4VvUwhMD6-C16kk-12">
          <mxGeometry relative="1" as="geometry" />
        </mxCell>
        <mxCell id="VyK4O4VvUwhMD6-C16kk-8" value="ParameterHandler" style="rounded=0;whiteSpace=wrap;html=1;fontSize=16;" vertex="1" parent="1">
          <mxGeometry x="110" y="370" width="150" height="40" as="geometry" />
        </mxCell>
        <mxCell id="VyK4O4VvUwhMD6-C16kk-15" style="edgeStyle=none;rounded=0;orthogonalLoop=1;jettySize=auto;html=1;exitX=0.5;exitY=1;exitDx=0;exitDy=0;entryX=0.5;entryY=0;entryDx=0;entryDy=0;fontSize=16;" edge="1" parent="1" source="VyK4O4VvUwhMD6-C16kk-9" target="VyK4O4VvUwhMD6-C16kk-13">
          <mxGeometry relative="1" as="geometry" />
        </mxCell>
        <mxCell id="VyK4O4VvUwhMD6-C16kk-9" value="ResultSetHandler" style="rounded=0;whiteSpace=wrap;html=1;fontSize=16;" vertex="1" parent="1">
          <mxGeometry x="300" y="370" width="150" height="40" as="geometry" />
        </mxCell>
        <mxCell id="VyK4O4VvUwhMD6-C16kk-17" style="edgeStyle=none;rounded=0;orthogonalLoop=1;jettySize=auto;html=1;exitX=0.5;exitY=1;exitDx=0;exitDy=0;entryX=0.145;entryY=0;entryDx=0;entryDy=4.35;entryPerimeter=0;fontSize=16;" edge="1" parent="1" source="VyK4O4VvUwhMD6-C16kk-12" target="VyK4O4VvUwhMD6-C16kk-16">
          <mxGeometry relative="1" as="geometry" />
        </mxCell>
        <mxCell id="VyK4O4VvUwhMD6-C16kk-12" value="Statement" style="rounded=0;whiteSpace=wrap;html=1;fontSize=16;fillColor=#f5f5f5;strokeColor=#666666;fontColor=#333333;" vertex="1" parent="1">
          <mxGeometry x="110" y="450" width="150" height="40" as="geometry" />
        </mxCell>
        <mxCell id="VyK4O4VvUwhMD6-C16kk-13" value="ResultSet" style="rounded=0;whiteSpace=wrap;html=1;fontSize=16;fillColor=#f5f5f5;strokeColor=#666666;fontColor=#333333;" vertex="1" parent="1">
          <mxGeometry x="300" y="450" width="150" height="40" as="geometry" />
        </mxCell>
        <mxCell id="VyK4O4VvUwhMD6-C16kk-18" style="edgeStyle=none;rounded=0;orthogonalLoop=1;jettySize=auto;html=1;exitX=0.855;exitY=0;exitDx=0;exitDy=4.35;exitPerimeter=0;entryX=0.5;entryY=1;entryDx=0;entryDy=0;fontSize=16;" edge="1" parent="1" source="VyK4O4VvUwhMD6-C16kk-16" target="VyK4O4VvUwhMD6-C16kk-13">
          <mxGeometry relative="1" as="geometry" />
        </mxCell>
        <mxCell id="VyK4O4VvUwhMD6-C16kk-16" value="数据库" style="shape=cylinder3;whiteSpace=wrap;html=1;boundedLbl=1;backgroundOutline=1;size=15;fontSize=16;fillColor=#f5f5f5;strokeColor=#666666;fontColor=#333333;" vertex="1" parent="1">
          <mxGeometry x="225" y="550" width="110" height="60" as="geometry" />
        </mxCell>
        <mxCell id="VyK4O4VvUwhMD6-C16kk-21" value="JDBC" style="text;html=1;align=center;verticalAlign=middle;resizable=0;points=[];autosize=1;fontSize=16;" vertex="1" parent="1">
          <mxGeometry x="250" y="430" width="60" height="20" as="geometry" />
        </mxCell>
        <mxCell id="VyK4O4VvUwhMD6-C16kk-22" value="接口层" style="text;html=1;align=center;verticalAlign=middle;resizable=0;points=[];autosize=1;fontSize=16;fontStyle=1" vertex="1" parent="1">
          <mxGeometry x="70" y="130" width="60" height="20" as="geometry" />
        </mxCell>
        <mxCell id="VyK4O4VvUwhMD6-C16kk-23" value="核心层" style="text;html=1;align=center;verticalAlign=middle;resizable=0;points=[];autosize=1;fontSize=16;fontStyle=1" vertex="1" parent="1">
          <mxGeometry x="70" y="209" width="60" height="20" as="geometry" />
        </mxCell>
        <mxCell id="VyK4O4VvUwhMD6-C16kk-24" value="scripting模块" style="rounded=0;whiteSpace=wrap;html=1;fontSize=16;" vertex="1" parent="1">
          <mxGeometry x="520" y="240" width="120" height="40" as="geometry" />
        </mxCell>
        <mxCell id="VyK4O4VvUwhMD6-C16kk-25" value="事务模块" style="rounded=0;whiteSpace=wrap;html=1;fontSize=16;" vertex="1" parent="1">
          <mxGeometry x="520" y="301" width="120" height="40" as="geometry" />
        </mxCell>
        <mxCell id="VyK4O4VvUwhMD6-C16kk-26" value="缓存模块" style="rounded=0;whiteSpace=wrap;html=1;fontSize=16;" vertex="1" parent="1">
          <mxGeometry x="520" y="361" width="120" height="40" as="geometry" />
        </mxCell>
        <mxCell id="VyK4O4VvUwhMD6-C16kk-28" value="其他模块" style="text;html=1;align=center;verticalAlign=middle;resizable=0;points=[];autosize=1;fontSize=16;" vertex="1" parent="1">
          <mxGeometry x="540" y="209" width="80" height="20" as="geometry" />
        </mxCell>
        <mxCell id="VyK4O4VvUwhMD6-C16kk-29" value="……" style="text;html=1;align=center;verticalAlign=middle;resizable=0;points=[];autosize=1;fontSize=16;" vertex="1" parent="1">
          <mxGeometry x="550" y="401" width="50" height="20" as="geometry" />
        </mxCell>
        <mxCell id="VyK4O4VvUwhMD6-C16kk-31" value="&lt;font style=&quot;font-size: 14px&quot;&gt;依赖&lt;/font&gt;" style="html=1;shadow=0;dashed=0;align=center;verticalAlign=middle;shape=mxgraph.arrows2.arrow;dy=0.6;dx=40;notch=0;fontSize=16;" vertex="1" parent="1">
          <mxGeometry x="400" y="285" width="80" height="50" as="geometry" />
        </mxCell>
      </root>
    </mxGraphModel>
  </diagram>
</mxfile>
